<?xml version="1.0" encoding="UTF-8" standalone="no"?>
<svg
   xmlns:dc="http://purl.org/dc/elements/1.1/"
   xmlns:cc="http://creativecommons.org/ns#"
   xmlns:rdf="http://www.w3.org/1999/02/22-rdf-syntax-ns#"
   xmlns:svg="http://www.w3.org/2000/svg"
   xmlns="http://www.w3.org/2000/svg"
   xmlns:sodipodi="http://sodipodi.sourceforge.net/DTD/sodipodi-0.dtd"
   xmlns:inkscape="http://www.inkscape.org/namespaces/inkscape"
   version="1.0"
   width="302pt"
   height="120pt"
   viewBox="0 0 302 120"
   preserveAspectRatio="xMidYMid meet"
   id="svg3704"
   sodipodi:docname="philgo-loader.svg"
   inkscape:version="0.92.0 r15299">
  <defs
     id="defs3708" />
  <sodipodi:namedview
     pagecolor="#ffffff"
     bordercolor="#666666"
     borderopacity="1"
     objecttolerance="10"
     gridtolerance="10"
     guidetolerance="10"
     inkscape:pageopacity="0"
     inkscape:pageshadow="2"
     inkscape:window-width="3561"
     inkscape:window-height="1507"
     id="namedview3706"
     showgrid="false"
     inkscape:zoom="2.8284271"
     inkscape:cx="110.90455"
     inkscape:cy="52"
     inkscape:window-x="102"
     inkscape:window-y="318"
     inkscape:window-maximized="0"
     inkscape:current-layer="svg3704"
     showguides="false" />
  <metadata
     id="metadata3680">
Created by potrace 1.10, written by Peter Selinger 2001-2011
<rdf:RDF>
  <cc:Work
     rdf:about="">
    <dc:format>image/svg+xml</dc:format>
    <dc:type
       rdf:resource="http://purl.org/dc/dcmitype/StillImage" />
    <dc:title></dc:title>
  </cc:Work>
</rdf:RDF>
</metadata>
  <g
     transform="matrix(0.1,0,0,-0.1,1.5,84)"
     id="g3702"
     style="fill:#000000;stroke:none">
    <path
       d="M 130,692 C 61,649 5,608 5,600 5,588 86,519 163,465 180,453 178,446 134,336 95,239 90,217 101,204 c 7,-9 21,-13 33,-10 12,3 83,8 160,12 159,7 191,14 191,37 0,9 -43,69 -95,132 l -94,115 -1,138 c 0,129 -1,137 -20,139 -11,2 -76,-32 -145,-75 z m 147,-61 c -2,-106 -2,-108 -22,-95 -25,16 -37,8 -54,-34 l -14,-33 -26,24 c -14,13 -50,40 -78,61 -29,21 -53,41 -53,44 0,10 233,150 242,145 3,-1 6,-52 5,-112 z M 264,505 c 18,-28 17,-75 -2,-82 -7,-3 -24,5 -38,18 -24,23 -25,47 -2,77 15,18 24,15 42,-13 z m 100,-128 57,-68 -27,-22 c -68,-55 -104,-78 -104,-68 0,6 -29,8 -79,5 -50,-3 -82,-1 -86,5 -3,6 1,25 9,43 8,18 20,51 26,73 7,22 16,44 21,50 5,5 9,17 9,27 0,23 5,23 41,-3 33,-23 61,-19 58,8 -3,30 0,38 10,28 4,-6 34,-41 65,-78 z m 96,-122 c 0,-10 -10,-15 -27,-15 -16,0 -39,-3 -53,-6 -23,-5 -22,-3 10,24 27,23 39,28 52,21 10,-5 18,-16 18,-24 z"
       id="path3682"
       inkscape:connector-curvature="0" />
    <path
       d="M 945,506 C 908,489 875,454 861,417 855,401 850,312 850,209 V 30 h 50 50 v 183 c 0,165 2,186 18,200 40,37 102,8 102,-48 0,-39 -29,-65 -72,-65 -26,0 -28,-2 -28,-45 v -45 h 44 c 48,0 96,27 130,73 15,20 20,43 20,82 0,58 -17,91 -66,128 -34,25 -113,32 -153,13 z m 123,-27 c 65,-22 92,-121 52,-186 -21,-35 -73,-63 -102,-55 -29,7 -21,31 16,46 40,16 56,42 56,86 0,61 -83,104 -131,67 -34,-26 -39,-55 -39,-221 0,-159 -1,-166 -20,-166 -19,0 -20,7 -20,186 v 186 l 34,34 c 28,28 41,34 79,34 24,0 58,-5 75,-11 z"
       id="path3684"
       inkscape:connector-curvature="0" />
    <path
       d="m 1237,472 c -15,-16 -17,-47 -17,-230 V 30 h 51 50 l -3,90 -3,90 h 63 62 V 120 30 h 50 50 v 210 c 0,197 -1,211 -20,230 -49,49 -80,11 -80,-98 v -82 h -60 -60 v 80 c 0,67 -3,83 -20,100 -25,25 -42,25 -63,2 z m 51,-96 c 2,-61 7,-83 20,-92 18,-14 119,-19 139,-6 7,4 13,41 15,92 3,77 5,85 23,85 19,0 20,-8 23,-203 l 2,-203 -22,3 c -21,3 -23,8 -26,83 -2,61 -7,83 -19,93 -23,17 -104,15 -131,-4 -20,-13 -22,-24 -22,-95 0,-72 -2,-79 -20,-79 -19,0 -20,7 -20,206 0,190 1,205 18,202 14,-3 17,-16 20,-82 z"
       id="path3686"
       inkscape:connector-curvature="0" />
    <path
       d="m 1637,472 c -15,-16 -17,-47 -17,-230 V 30 h 48 47 l -2,217 c -2,193 -5,219 -20,230 -23,18 -37,16 -56,-5 z m 51,-220 c 2,-197 2,-202 -18,-202 -19,0 -20,6 -20,198 0,109 3,202 7,206 23,23 28,-12 31,-202 z"
       id="path3688"
       inkscape:connector-curvature="0" />
    <path
       d="m 1810,470 c -18,-18 -20,-33 -20,-172 0,-238 16,-268 146,-268 h 74 v 46 46 l -37,-4 c -21,-3 -48,-1 -60,3 -23,8 -23,12 -23,172 0,146 -2,166 -18,180 -24,22 -38,21 -62,-3 z m 46,-21 c 6,-11 9,-60 12,-226 2,-111 16,-133 83,-133 33,0 40,-3 37,-17 -4,-22 -27,-27 -85,-18 -80,12 -83,20 -83,218 0,96 3,177 7,180 9,10 21,8 29,-4 z"
       id="path3690"
       inkscape:connector-curvature="0" />
    <path
       d="m 2170,470 c -94,-44 -134,-108 -134,-215 0,-80 23,-135 73,-178 151,-127 381,-25 381,169 v 54 h -112 -113 v -46 -45 l 63,3 c 71,3 76,-4 36,-51 -88,-105 -259,-10 -229,128 13,61 74,111 135,111 37,0 90,-21 109,-43 18,-22 44,-21 64,1 23,25 21,45 -5,69 -66,60 -189,80 -268,43 z m 197,-21 c 23,-8 23,-10 7,-34 -15,-23 -18,-24 -37,-10 -33,23 -108,19 -147,-7 -65,-44 -90,-106 -76,-183 14,-71 108,-134 182,-120 37,7 114,74 114,99 0,28 -30,46 -76,46 -32,0 -44,4 -44,15 0,11 12,15 48,16 26,0 64,2 84,4 42,3 51,-10 44,-60 -9,-69 -58,-130 -126,-157 -81,-34 -200,2 -248,74 -30,46 -42,144 -23,200 20,60 81,114 144,128 37,8 120,2 154,-11 z m 62,-43 c 9,-11 8,-18 -5,-31 -15,-15 -19,-15 -32,-1 -17,17 -10,46 11,46 8,0 20,-6 26,-14 z"
       id="path3692"
       inkscape:connector-curvature="0" />
    <path
       d="m 2686,475 c -49,-17 -103,-68 -127,-120 -24,-53 -25,-147 0,-200 51,-113 188,-165 301,-114 96,43 130,101 130,217 0,73 -3,84 -32,128 -59,88 -171,125 -272,89 z m 154,-20 c 65,-14 140,-123 140,-203 0,-40 -30,-115 -58,-145 -56,-62 -175,-79 -252,-36 -127,70 -147,246 -40,343 22,20 52,38 67,42 16,3 33,7 38,9 11,3 68,-3 105,-10 z"
       id="path3694"
       inkscape:connector-curvature="0" />
    <path
       d="m 2705,406 c -39,-17 -70,-52 -89,-98 -13,-31 -14,-43 -2,-88 28,-106 127,-159 219,-115 109,51 122,213 23,286 -36,27 -110,35 -151,15 z m 122,-23 c 48,-22 73,-66 73,-128 0,-63 -25,-106 -75,-129 -96,-46 -203,34 -192,143 6,52 31,90 78,113 43,22 71,23 116,1 z"
       id="path3696"
       inkscape:connector-curvature="0" />
    <path
       d="m 490,360 c -53,-46 -41,-54 16,-10 21,16 43,30 47,30 4,0 15,-17 24,-37 8,-21 25,-60 38,-88 12,-27 25,-63 29,-78 4,-16 18,-51 31,-79 13,-27 21,-56 18,-64 -6,-15 -16,-18 -27,-7 -3,4 -13,8 -21,9 -8,1 -42,9 -77,18 -35,8 -74,17 -88,20 -14,3 -56,13 -95,22 -38,9 -82,18 -98,21 -38,7 -44,23 -17,45 30,24 18,36 -15,14 -33,-22 -42,-44 -24,-60 15,-14 409,-106 453,-106 15,0 29,6 32,14 3,8 -27,96 -66,195 -82,207 -84,208 -160,141 z"
       id="path3698"
       inkscape:connector-curvature="0" />
    <path
       d="M 115,22 C 88,20 61,15 57,11 52,6 121,3 209,3 c 89,1 161,5 161,9 0,4 -17,8 -37,9 -21,0 -67,2 -103,3 -36,1 -87,0 -115,-2 z"
       id="path3700"
       inkscape:connector-curvature="0" />
  </g>
  <path
     style="fill:#ff6600;stroke-width:0.375"
     d="M 18.122059,34.936627 C 17.003052,33.948142 13.604187,31.244959 10.569027,28.929555 7.5338675,26.614151 4.9568252,24.568072 4.8422668,24.382712 4.4877581,23.809105 16.732054,16.047986 24.727473,11.778356 l 3.859343,-2.060926 0.262311,2.449423 c 0.403734,3.770009 0.05428,17.729741 -0.456619,18.240639 -0.322407,0.322406 -0.644703,0.278434 -1.294347,-0.176594 -1.156155,-0.809803 -3.057633,-0.77086 -3.826167,0.07836 -0.340586,0.376343 -1.180875,1.97584 -1.867311,3.554437 l -1.248063,2.870177 z"
     id="path3720"
     inkscape:connector-curvature="0" />
  <path
     style="fill:#ff0000;stroke-width:0.375"
     d="m 30.44218,61.814042 c -0.10497,-0.314913 -2.210548,-0.416619 -7.58348,-0.366307 -4.090988,0.03831 -7.752157,-0.03001 -8.13593,-0.151812 -0.93695,-0.297377 -0.879777,-1.177355 0.272463,-4.193613 0.533628,-1.396895 1.623518,-4.416182 2.421978,-6.709524 0.79846,-2.293344 1.880605,-4.976289 2.404767,-5.962103 C 20.34614,43.44487 20.775,42.157179 20.775,41.569147 c 0,-1.44826 0.629907,-1.372785 3.380582,0.405062 2.81831,1.821562 4.209444,2.173771 5.429183,1.374567 0.770785,-0.505038 0.920778,-0.938952 1.01601,-2.939213 l 0.111725,-2.346704 5.815868,6.93732 c 3.198727,3.815527 6.031277,7.214951 6.294555,7.554275 0.418221,0.539024 0.03885,0.964096 -3.003369,3.365155 C 36.030148,58.910385 31.305873,62.25 30.864476,62.25 c -0.152337,0 -0.34237,-0.196181 -0.422296,-0.435958 z"
     id="path3722"
     inkscape:connector-curvature="0" />
  <path
     style="fill:#d40000;stroke-width:0.375"
     d="m 25.197758,40.531622 c -2.1479,-1.362158 -3.076638,-2.995612 -2.814487,-4.950093 0.20913,-1.559184 1.407976,-3.488143 2.546603,-4.097518 2.136375,-1.143352 5.106664,6.22566 3.63281,9.012667 -0.691608,1.307807 -1.347096,1.314614 -3.364926,0.03494 z"
     id="path3724"
     inkscape:connector-curvature="0" />
  <path
     style="fill:#800000;stroke-width:0.26516503"
     d="m 39.441253,59.303811 c 3.889015,-3.514514 5.474712,-4.024922 7.075981,-2.277635 1.516699,1.655006 0.791496,2.808961 -1.77268,2.82072 -0.656284,0.003 -2.376089,0.183756 -3.82179,0.401657 -1.4457,0.217901 -2.698605,0.391019 -2.784233,0.384704 -0.08563,-0.0063 0.500597,-0.604565 1.302722,-1.329446 z"
     id="path3728"
     inkscape:connector-curvature="0" />
  <path
     style="fill:#800000;stroke-width:0.26516503"
     d=""
     id="path3730"
     inkscape:connector-curvature="0" />
  <path
     style="fill:#0000ff;stroke-width:0.26516503"
     d="m 68.344243,82.75456 c -10.993897,-1.97277 -32.191561,-6.8495 -40.172505,-9.24207 -4.148742,-1.24373 -5.00945,-2.12169 -3.997834,-4.07794 0.822136,-1.58983 4.112458,-4.01684 5.445679,-4.01684 0.878772,0 0.629925,0.55893 -0.880905,1.97857 -3.362434,3.1595 -2.68714,4.23775 3.410536,5.44564 1.604249,0.31778 8.34607,1.82836 14.981825,3.35684 6.635755,1.52848 13.842021,3.18397 16.013927,3.67887 2.786638,0.63498 4.244467,1.10464 4.953076,1.59571 1.184312,0.82072 1.720876,0.77552 2.453503,-0.20669 0.493149,-0.66115 0.51411,-0.86275 0.241897,-2.3265 -0.163922,-0.88144 -1.033046,-3.30016 -1.931388,-5.37492 -0.898342,-2.07476 -2.32699,-5.80081 -3.174773,-8.2801 -2.193408,-6.414499 -7.266763,-17.94411 -8.339276,-18.951686 -0.497073,-0.466975 -0.607888,-0.476671 -1.335738,-0.116868 -0.436533,0.215793 -2.225585,1.415543 -3.975675,2.666109 -3.464103,2.475351 -4.27372,2.940275 -4.575217,2.62732 -0.267721,-0.277894 4.719814,-4.971253 6.658836,-6.266081 3.702177,-2.472218 5.054253,-0.919807 10.175913,11.683658 4.054125,9.976448 8.348544,21.961948 8.597558,23.995328 0.167533,1.36803 -2.083214,2.2742 -4.549439,1.83165 z"
     id="path3732"
     inkscape:connector-curvature="0" />
  <path
     style="fill:#b3b3b3;stroke-width:0.26516503"
     d="m 90.449123,78.25987 c -0.674595,-1.02956 -0.861653,-5.72 -0.87762,-22.006293 l -0.01403,-14.334849 2.71794,-2.667403 c 3.52215,-3.456656 4.32405,-3.870691 7.756077,-4.004586 5.3656,-0.209329 9.89662,1.104698 11.95398,3.466728 2.44042,2.801842 3.70653,7.376056 3.0795,11.125743 -0.69298,4.144002 -3.11663,7.414432 -6.86068,9.257621 -2.90225,1.428762 -6.18019,1.293657 -6.40338,-0.263926 -0.14877,-1.038155 0.60868,-1.758117 3.38574,-3.218122 2.75597,-1.44892 3.58656,-2.18678 4.60101,-4.087356 0.802,-1.502541 0.85306,-6.12094 0.0848,-7.667571 -0.75892,-1.527742 -2.65381,-3.321729 -4.34662,-4.115136 -1.29623,-0.60754 -1.86693,-0.710933 -3.92411,-0.710933 -2.213712,0 -2.510142,0.06397 -3.686495,0.795495 -2.570407,1.598436 -3.614745,3.72165 -4.113765,8.363572 -0.16398,1.525348 -0.382725,8.748194 -0.486097,16.050766 -0.170123,12.01739 -0.23211,13.3448 -0.653198,13.98746 -0.609727,0.93057 -1.613565,0.94362 -2.212987,0.0288 z"
     id="path3734"
     inkscape:connector-curvature="0" />
  <path
     style="fill:#b3b3b3;stroke-width:0.26516503"
     d="m 127.63798,78.53485 c -0.22344,-0.22345 -0.50045,-0.8499 -0.61556,-1.39211 -0.11511,-0.54222 -0.20929,-9.04024 -0.20929,-18.884488 0,-19.341762 0.0361,-19.887378 1.31392,-19.887378 1.2968,0 1.65809,1.373097 1.99763,7.59195 0.49956,9.149548 0.92178,9.982825 5.42274,10.701856 2.36511,0.377828 8.28669,0.381713 9.68068,0.0064 0.87187,-0.234768 1.19135,-0.484559 1.46616,-1.146343 0.52887,-1.273574 0.89885,-4.283499 1.19591,-9.729194 0.35499,-6.507317 0.55188,-7.14636 2.20473,-7.155396 1.2489,-0.0068 1.48365,1.042307 1.76383,7.882659 0.13595,3.318945 0.3219,11.97937 0.41324,19.245394 l 0.16608,13.21094 -1.27778,-0.1877 c -2.8451,-0.41795 -2.88913,-0.51763 -3.27118,-7.40747 -0.54159,-9.766622 -0.93752,-10.610882 -5.29312,-11.286677 -3.45254,-0.53568 -8.02022,0.142758 -10.0631,1.494675 -1.81431,1.200653 -1.94576,1.769679 -2.13955,9.261672 -0.10778,4.16684 -0.28472,6.83915 -0.47635,7.19455 -0.5059,0.93827 -1.59487,1.17083 -2.27899,0.48671 z"
     id="path3736"
     inkscape:connector-curvature="0" />
  <path
     style="fill:#b3b3b3;stroke-width:0.26516503"
     d="m 167.53083,78.56128 c -0.6564,-0.79091 -0.79936,-4.16126 -0.78804,-18.579455 0.0156,-19.868342 0.2057,-22.354124 1.6668,-21.793449 1.13086,0.433953 1.48758,5.222512 1.67428,22.475636 0.16018,14.801408 0.0779,17.184398 -0.61721,17.879528 -0.50368,0.50368 -1.52477,0.51304 -1.93583,0.0177 z"
     id="path3738"
     inkscape:connector-curvature="0" />
  <path
     style="fill:#b3b3b3;stroke-width:0.26516503"
     d="m 190.98308,78.2602 c -3.77217,-0.69378 -4.97638,-1.35631 -5.9562,-3.27692 -1.0015,-1.96309 -1.12387,-3.54443 -1.25321,-16.194698 -0.11968,-11.704768 0.12899,-19.695974 0.62723,-20.156432 0.59196,-0.54708 1.38456,-0.523652 2.04863,0.06056 0.99604,0.876237 1.16132,2.606494 1.61571,16.913896 0.21537,6.781596 0.51387,12.926804 0.66333,13.655994 0.14945,0.72921 0.57607,1.9494 0.94803,2.71154 1.11285,2.28019 2.43582,2.91089 6.58751,3.14049 3.82454,0.21151 3.86716,0.22547 3.86716,1.26626 0,0.59929 -0.21635,1.08027 -0.68355,1.51964 -0.62604,0.58876 -0.92164,0.64735 -3.51344,0.69633 -1.60055,0.0303 -3.75141,-0.116 -4.9512,-0.33665 z"
     id="path3740"
     inkscape:connector-curvature="0" />
  <path
     style="fill:#ff6600;stroke-width:0.26516503"
     d="m 226.24262,79.20263 c -6.05007,-0.63965 -12.44096,-4.08856 -15.18179,-8.19299 -2.19518,-3.28729 -3.30781,-7.712843 -3.33917,-13.281718 -0.0242,-4.305154 0.31172,-6.023602 1.76258,-9.015612 0.9155,-1.887967 1.52575,-2.68668 3.75865,-4.919502 2.20555,-2.205471 3.08336,-2.879803 5.08526,-3.906514 3.18682,-1.634413 5.00345,-2.036996 9.21367,-2.041831 5.58653,-0.0065 12.08584,1.265552 12.30593,2.408369 0.12829,0.666145 -2.10406,3.806053 -2.77373,3.901397 -0.31796,0.04527 -1.03391,-0.21857 -1.59099,-0.586308 -3.8151,-2.518386 -10.94397,-2.179023 -15.32453,0.729507 -5.51155,3.659464 -8.4482,9.981847 -7.61922,16.403645 0.54236,4.201537 2.23281,7.178607 5.64404,9.939807 3.35257,2.71372 6.94539,4.0576 10.84784,4.0576 2.0316,0 2.46755,-0.0939 4.12064,-0.88735 3.03627,-1.45738 7.86584,-5.65414 8.97499,-7.79901 1.75683,-3.397334 -1.75859,-6.162878 -7.83394,-6.162878 -2.14752,0 -3.6676,-0.530439 -3.6676,-1.279827 0,-1.240527 1.42582,-1.488534 10.14098,-1.76392 l 5.76576,-0.182189 0.83468,0.834686 0.83469,0.834685 -0.14955,2.568147 c -0.29691,5.098286 -1.96828,8.738326 -5.75007,12.522966 -2.14278,2.14439 -2.9124,2.72086 -5.04736,3.78062 -3.74527,1.85908 -7.00295,2.46206 -11.01176,2.03822 z"
     id="path3742"
     inkscape:connector-curvature="0" />
  <path
     style="fill:#ff6600;stroke-width:0.26516503"
     d="m 275.04787,78.91098 c -7.71744,-1.12406 -14.10264,-6.81683 -16.47288,-14.68651 -0.99197,-3.293596 -1.05921,-8.220799 -0.15527,-11.379632 1.50537,-5.260542 4.62655,-9.461658 9.25294,-12.454457 3.32909,-2.153577 6.53065,-2.974844 10.54972,-2.706227 4.21256,0.281552 8.09652,1.044527 9.66621,1.898854 3.18798,1.735122 7.02659,6.15929 9.17391,10.573357 3.13472,6.44379 2.96386,11.108277 -0.68209,18.620965 -1.50077,3.09242 -3.47504,5.4323 -5.92214,7.01885 -4.10117,2.65894 -10.14838,3.88122 -15.4104,3.1148 z m 6.08371,-4.08295 c 6.76152,-1.43227 11.5367,-6.64868 12.60392,-13.76852 0.87324,-5.82575 -1.42086,-11.956448 -5.87584,-15.702401 -2.86201,-2.406518 -8.2282,-3.699648 -12.5541,-3.025251 -5.57779,0.869566 -10.66054,5.702599 -12.74893,12.12258 -0.70648,2.171835 -0.72659,2.372653 -0.43672,4.361495 0.39566,2.714587 1.61648,6.323907 2.86521,8.470927 1.42528,2.45056 4.12133,5.01571 6.50866,6.19265 3.32734,1.64036 6.29792,2.056 9.6378,1.34852 z"
     id="path3744"
     inkscape:connector-curvature="0" />
  <path
     style="fill:#d45500;stroke-width:0.26516503"
     d="m 241.04604,46.789864 c -1.33005,-1.460281 -1.5189,-3.026076 -0.48916,-4.05582 0.76747,-0.767463 1.19997,-0.804098 2.45606,-0.208044 0.81942,0.388842 1.92741,1.698204 1.93023,2.281051 5.6e-4,0.112639 -0.4915,0.739092 -1.09344,1.392116 -1.23258,1.337183 -1.98029,1.494716 -2.80369,0.590697 z"
     id="path3746"
     inkscape:connector-curvature="0" />
  <text
     xml:space="preserve"
     style="font-style:normal;font-weight:normal;font-size:9.22259521px;line-height:4.15016747px;font-family:sans-serif;letter-spacing:0px;word-spacing:0px;fill:#552200;fill-opacity:1;stroke:none;stroke-width:0.23056489"
     x="91.494423"
     y="14.913608"
     id="text3750"
     transform="scale(0.96519022,1.0360652)"><tspan
       sodipodi:role="line"
       id="tspan3748"
       x="91.494423"
       y="14.913608"
       style="line-height:4.15016747px;fill:#552200;stroke-width:0.23056489">필리핀 정보 커뮤니티 - 필고</tspan></text>
  <text
     xml:space="preserve"
     style="font-style:normal;font-weight:normal;font-size:18.47782898px;line-height:11.54864407px;font-family:sans-serif;letter-spacing:0px;word-spacing:0px;fill:#536c5d;fill-opacity:1;stroke:none;stroke-width:0.46194574"
     x="37.982189"
     y="117.64445"
     id="text3754"
     transform="scale(1.0010986,0.99890261)"><tspan
       sodipodi:role="line"
       id="tspan3752"
       x="37.982189"
       y="117.64445"
       style="fill:#536c5d;stroke-width:0.46194574">필리핀의 모든 것을 담았습니다.</tspan></text>
</svg>
